<svg width="38" height="59" viewBox="0 0 38 59" fill="none" xmlns="http://www.w3.org/2000/svg">
<path fill-rule="evenodd" clip-rule="evenodd" d="M8.60986 16.2364V7.87897H29.4224V16.2364" fill="#92D9F7"/>
<path d="M34.0474 1.39709H3.98486V8.34165H34.0474V1.39709Z" fill="#89B9D8"/>
<path d="M30.1556 15.2792H7.92319C4.47487 15.2792 1.67944 18.0745 1.67944 21.5228V50.6625C1.67944 54.1108 4.47487 56.9064 7.92319 56.9064H30.1556C33.6039 56.9064 36.3993 54.1108 36.3993 50.6625V21.5228C36.3993 18.0745 33.6039 15.2792 30.1556 15.2792Z" fill="#92D9F7"/>
<path d="M36.3599 47.6542H1.67236V24.5292H36.3599V47.6542Z" fill="#EC7BB0"/>
<path d="M16.7268 29.1542V33.7792H12.1018V38.4042H16.7268V43.0292H21.3518V38.4042H25.9768V33.7792H21.3518V29.1542H16.7268Z" fill="#F2F2F2"/>
<path d="M3.98267 0.243103C3.67602 0.243103 3.38192 0.364939 3.16508 0.581778C2.94824 0.798617 2.82642 1.0927 2.82642 1.39935V8.33918C2.82642 8.64584 2.94824 8.93992 3.16508 9.15676C3.38192 9.3736 3.67602 9.49543 3.98267 9.49543H28.2639V14.1205H7.92086C5.95861 14.1236 4.07771 14.9048 2.69084 16.293C1.30397 17.6812 0.524395 19.5628 0.523173 21.525V24.2978C0.493578 24.4467 0.493578 24.5998 0.523173 24.7486V47.4228C0.493578 47.5717 0.493578 47.7248 0.523173 47.8736V50.6602C0.525009 52.6225 1.30517 54.5038 2.69247 55.8916C4.07978 57.2793 5.96092 58.0601 7.92317 58.0625H30.1532C32.1147 58.0589 33.9948 57.2781 35.3818 55.8912C36.7688 54.5042 37.5496 52.6241 37.5532 50.6626V21.525C37.5532 17.5892 34.4545 14.391 30.5764 14.1667V9.49543H34.0452C34.3518 9.49543 34.6459 9.3736 34.8628 9.15676C35.0796 8.93992 35.2014 8.64584 35.2014 8.33918V1.39935C35.2014 1.0927 35.0796 0.798617 34.8628 0.581778C34.6459 0.364939 34.3518 0.243103 34.0452 0.243103H3.98267ZM5.13892 2.5556H32.8889V7.18293H5.13892V2.5556ZM7.92086 16.433H30.1532C32.9907 16.433 35.2407 18.6853 35.2407 21.525V23.3705H2.83567V21.525C2.83567 18.6853 5.08111 16.433 7.92086 16.433ZM2.83567 25.683H35.243V46.4955H2.83567V25.683ZM16.7245 27.9955C16.4179 27.9955 16.1238 28.1173 15.907 28.3341C15.6901 28.5509 15.5683 28.8451 15.5683 29.1518V32.6205H12.0995C11.7929 32.6205 11.4988 32.7423 11.282 32.9591C11.0651 33.1759 10.9433 33.4701 10.9433 33.7768V38.4018C10.9433 38.7084 11.0651 39.0024 11.282 39.2193C11.4988 39.4361 11.7929 39.558 12.0995 39.558H15.5683V43.0268C15.5683 43.3334 15.6901 43.6274 15.907 43.8443C16.1238 44.0611 16.4179 44.183 16.7245 44.183H21.3496C21.6562 44.183 21.9503 44.0611 22.1671 43.8443C22.384 43.6274 22.5058 43.3334 22.5058 43.0268V39.558H25.9746C26.2812 39.558 26.5753 39.4361 26.7921 39.2193C27.009 39.0024 27.1308 38.7084 27.1308 38.4018V33.7768C27.1308 33.4701 27.009 33.1759 26.7921 32.9591C26.5753 32.7423 26.2812 32.6205 25.9746 32.6205H22.5058V29.1518C22.5058 28.8451 22.384 28.5509 22.1671 28.3341C21.9503 28.1173 21.6562 27.9955 21.3496 27.9955H16.7245ZM17.8808 30.308H20.1933V33.7768C20.1933 34.0834 20.3151 34.3774 20.532 34.5943C20.7488 34.8111 21.0429 34.933 21.3496 34.933H24.8183V37.2455H21.3496C21.0429 37.2455 20.7488 37.3673 20.532 37.5841C20.3151 37.8009 20.1933 38.0951 20.1933 38.4018V41.8705H17.8808V38.4018C17.8808 38.0951 17.759 37.8009 17.5421 37.5841C17.3253 37.3673 17.0312 37.2455 16.7245 37.2455H13.2558V34.933H16.7245C17.0312 34.933 17.3253 34.8111 17.5421 34.5943C17.759 34.3774 17.8808 34.0834 17.8808 33.7768V30.308ZM2.83567 48.808H35.243V50.6602C35.2477 51.3299 35.1192 51.9939 34.865 52.6135C34.6109 53.2331 34.2361 53.796 33.7626 54.2696C33.289 54.7431 32.7261 55.1179 32.1065 55.372C31.4869 55.6262 30.8229 55.7546 30.1532 55.75H7.92086C5.08343 55.75 2.83567 53.5001 2.83567 50.6626V48.808Z" fill="#62355C"/>
<path fill-rule="evenodd" clip-rule="evenodd" d="M7.45361 7.87897V16.2341H9.76611V7.87897H7.45361Z" fill="#62355C"/>
</svg>
