<svg width="67" height="39" viewBox="0 0 67 39" fill="none" xmlns="http://www.w3.org/2000/svg">
<path d="M14.0676 23.0222H52.9312V38.3629H14.0676V23.0222Z" fill="#FFD039"/>
<path fill-rule="evenodd" clip-rule="evenodd" d="M54.4174 23.916C54.3018 23.9234 54.1903 23.9626 54.0954 24.0291C54.0004 24.0957 53.9256 24.187 53.8792 24.2932C53.8327 24.3994 53.8164 24.5164 53.8321 24.6313C53.8477 24.7462 53.8947 24.8545 53.9678 24.9444L64.1853 38.2424C64.2447 38.3174 64.3203 38.3779 64.4065 38.4194C64.4927 38.4608 64.5872 38.4821 64.6828 38.4817H65.7112C65.7984 38.4893 65.8863 38.4786 65.9692 38.4505C66.0521 38.4223 66.1282 38.3774 66.1928 38.3182C66.2573 38.2591 66.3088 38.1871 66.3441 38.107C66.3793 38.0268 66.3975 37.9402 66.3975 37.8527C66.3975 37.7651 66.3793 37.6785 66.3441 37.5984C66.3088 37.5183 66.2573 37.4463 66.1928 37.3872C66.1282 37.328 66.0521 37.2829 65.9692 37.2547C65.8863 37.2266 65.7984 37.216 65.7112 37.2237H64.9985L54.9675 24.1696C54.904 24.0839 54.8198 24.0156 54.7228 23.9713C54.6257 23.927 54.5238 23.9079 54.4174 23.916ZM12.5047 23.916C12.4128 23.9215 12.3232 23.9471 12.2423 23.9909C12.1613 24.0347 12.0909 24.0957 12.0359 24.1696L2.00021 37.2237H1.29228C1.20507 37.216 1.1172 37.2266 1.0343 37.2547C0.951402 37.2829 0.875271 37.328 0.81073 37.3872C0.74619 37.4463 0.694641 37.5183 0.659386 37.5984C0.62413 37.6785 0.605957 37.7651 0.605957 37.8527C0.605957 37.9402 0.62413 38.0268 0.659386 38.107C0.694641 38.1871 0.74619 38.2591 0.81073 38.3182C0.875271 38.3774 0.951402 38.4223 1.0343 38.4505C1.1172 38.4786 1.20507 38.4893 1.29228 38.4817H2.31115C2.40757 38.4828 2.50298 38.4619 2.59004 38.4204C2.67711 38.3789 2.75349 38.318 2.81339 38.2424L13.0357 24.9444C13.1132 24.8491 13.1612 24.7332 13.1738 24.611C13.1865 24.4888 13.1632 24.3656 13.1068 24.2564C13.0505 24.1472 12.9635 24.0569 12.8565 23.9964C12.7496 23.936 12.6273 23.908 12.5047 23.916Z" fill="#D3D5E7"/>
<path fill-rule="evenodd" clip-rule="evenodd" d="M33.5001 0.0675659L42.7049 38.3628H24.2952L33.5001 0.0675659Z" fill="#589FFF"/>
<path fill-rule="evenodd" clip-rule="evenodd" d="M33.4994 0.0655518L32.9875 0.634727V38.3621H34.0112V0.634727L33.4994 0.0655518Z" fill="#7F6773"/>
<path fill-rule="evenodd" clip-rule="evenodd" d="M33.5 0.0663452L39.508 25.0688H55.9991L33.5 0.0663452ZM33.5 0.0663452L10.9998 25.0688H27.4909L33.5 0.0663452Z" fill="#FFD039"/>
<path d="M33.5 0.0675659L35.0972 6.71716L39.0156 23.0222L42.7036 38.3628H52.9324V25.0662H56.0003L33.5 0.0675659ZM33.5 0.0675659L11.001 25.0662H14.0689V38.3628H24.2951L27.9831 23.0222L33.5 0.0675659Z" fill="#FFD039"/>
<path fill-rule="evenodd" clip-rule="evenodd" d="M33.5 0.0675659L37.6411 38.3628H42.7036L33.5 0.0675659Z" fill="#4D88E7"/>
<path d="M33.5001 0.0675659L34.6518 4.86429L49.7811 25.0662H49.7684V38.3628H52.9325V25.0662H56.0003L33.5001 0.0675659ZM33.4558 0.265004L29.1843 4.86302L24.8191 23.0222L21.1311 38.3628H24.2952L27.9832 23.0222L31.9193 6.65261L33.4558 0.265004Z" fill="#F5BA00"/>
</svg>
