<svg width="26" height="54" viewBox="0 0 26 54" fill="none" xmlns="http://www.w3.org/2000/svg">
<path d="M19.0899 9.06001C18.5399 9.06001 18.0799 8.60002 18.0799 8.05001V7.20001H18.1099C19.1099 7.20001 19.9199 6.38002 19.9199 5.39002V2.71001C19.9199 1.71001 19.0999 0.890015 18.1099 0.890015H7.8899C6.8899 0.890015 6.0799 1.71001 6.0799 2.71001V5.39002C6.0799 6.39002 6.8999 7.20001 7.8899 7.20001H7.9199V8.05001C7.9199 8.60002 7.4599 9.06001 6.9099 9.06001C3.5999 9.06001 0.899902 11.75 0.899902 15.07V47.08C0.899902 50.4 3.5999 53.1 6.9099 53.1H19.0699C22.3899 53.1 25.0999 50.4 25.0999 47.08V15.08C25.0999 11.76 22.3999 9.06001 19.0899 9.06001ZM7.8899 5.62001C7.7699 5.62001 7.6599 5.51002 7.6599 5.39002V2.71001C7.6599 2.58001 7.7699 2.47001 7.8899 2.47001H18.1099C18.2399 2.47001 18.3399 2.58001 18.3399 2.71001V5.39002C18.3399 5.51002 18.2399 5.62001 18.1099 5.62001H7.8899ZM23.5199 47.09C23.5199 49.54 21.5299 51.53 19.0699 51.53H6.9099C4.4699 51.53 2.4799 49.54 2.4799 47.09V26.49C3.3099 25.76 6.7399 23.4 12.5999 26.83C14.8699 28.16 16.8499 28.63 18.5199 28.63C20.7599 28.63 22.4399 27.77 23.5199 26.98V47.09ZM23.5199 24.9C22.7699 25.75 19.3599 28.96 13.3999 25.46C8.0899 22.34 4.3599 23.49 2.4799 24.58V15.07C2.4799 12.62 4.4699 10.64 6.9099 10.64C8.3399 10.64 9.4999 9.47001 9.4999 8.04001V7.20001H16.4999V8.05001C16.4999 9.48001 17.6599 10.65 19.0899 10.65C21.5299 10.65 23.5199 12.63 23.5199 15.08V24.9Z" fill="black"/>
<path d="M18.34 2.70997V5.38997C18.34 5.50997 18.24 5.61997 18.11 5.61997H7.88998C7.76998 5.61997 7.65998 5.50997 7.65998 5.38997V2.70997C7.65998 2.57997 7.76998 2.46997 7.88998 2.46997H18.11C18.24 2.46997 18.34 2.57997 18.34 2.70997ZM23.52 26.99V47.09C23.52 49.54 21.53 51.53 19.07 51.53H6.90998C4.46998 51.53 2.47998 49.54 2.47998 47.09V26.49C3.30998 25.76 6.73998 23.4 12.6 26.83C14.87 28.16 16.85 28.63 18.52 28.63C20.76 28.64 22.43 27.78 23.52 26.99Z" fill="#53B4ED"/>
</svg>
