<svg width="1063" height="539" viewBox="0 0 1063 539" fill="none" xmlns="http://www.w3.org/2000/svg">
<path d="M13.0341 366.727C13.0341 368.261 12.7571 369.587 12.2031 370.705C11.6491 371.822 10.8892 372.684 9.9233 373.29C8.95739 373.896 7.85417 374.199 6.61364 374.199C5.37311 374.199 4.26989 373.896 3.30398 373.29C2.33807 372.684 1.57813 371.822 1.02415 370.705C0.470171 369.587 0.193182 368.261 0.193182 366.727C0.193182 365.193 0.470171 363.867 1.02415 362.75C1.57813 361.633 2.33807 360.771 3.30398 360.165C4.26989 359.559 5.37311 359.256 6.61364 359.256C7.85417 359.256 8.95739 359.559 9.9233 360.165C10.8892 360.771 11.6491 361.633 12.2031 362.75C12.7571 363.867 13.0341 365.193 13.0341 366.727ZM11.3295 366.727C11.3295 365.468 11.1188 364.405 10.6974 363.538C10.2808 362.672 9.71496 362.016 9 361.571C8.28977 361.126 7.49432 360.903 6.61364 360.903C5.73295 360.903 4.93513 361.126 4.22017 361.571C3.50994 362.016 2.94413 362.672 2.52273 363.538C2.10606 364.405 1.89773 365.468 1.89773 366.727C1.89773 367.987 2.10606 369.05 2.52273 369.916C2.94413 370.783 3.50994 371.438 4.22017 371.884C4.93513 372.329 5.73295 372.551 6.61364 372.551C7.49432 372.551 8.28977 372.329 9 371.884C9.71496 371.438 10.2808 370.783 10.6974 369.916C11.1188 369.05 11.3295 367.987 11.3295 366.727ZM15.7685 378.091V363.091H17.3878V364.824H17.5866C17.7098 364.634 17.8802 364.393 18.098 364.099C18.3205 363.801 18.6378 363.536 19.0497 363.304C19.4664 363.067 20.0298 362.949 20.7401 362.949C21.6586 362.949 22.4683 363.179 23.169 363.638C23.8698 364.097 24.4167 364.748 24.8097 365.591C25.2027 366.434 25.3991 367.428 25.3991 368.574C25.3991 369.729 25.2027 370.731 24.8097 371.578C24.4167 372.421 23.8722 373.074 23.1761 373.538C22.4801 373.998 21.6776 374.227 20.7685 374.227C20.0677 374.227 19.5066 374.111 19.0852 373.879C18.6638 373.643 18.3395 373.375 18.1122 373.077C17.8849 372.774 17.7098 372.523 17.5866 372.324H17.4446V378.091H15.7685ZM17.4162 368.545C17.4162 369.369 17.5369 370.096 17.7784 370.726C18.0199 371.351 18.3726 371.841 18.8366 372.196C19.3007 372.546 19.8688 372.722 20.5412 372.722C21.242 372.722 21.8267 372.537 22.2955 372.168C22.7689 371.794 23.1241 371.292 23.3608 370.662C23.6023 370.027 23.723 369.322 23.723 368.545C23.723 367.778 23.6046 367.087 23.3679 366.472C23.1359 365.851 22.7831 365.361 22.3097 365.001C21.8409 364.637 21.2514 364.455 20.5412 364.455C19.8594 364.455 19.2865 364.627 18.8224 364.973C18.3584 365.314 18.008 365.792 17.7713 366.408C17.5346 367.018 17.4162 367.731 17.4162 368.545ZM32.5298 374.227C31.4787 374.227 30.572 373.995 29.8097 373.531C29.0521 373.062 28.4673 372.409 28.0554 371.571C27.6482 370.728 27.4446 369.748 27.4446 368.631C27.4446 367.513 27.6482 366.528 28.0554 365.676C28.4673 364.819 29.0402 364.152 29.7741 363.673C30.5128 363.19 31.3745 362.949 32.3594 362.949C32.9276 362.949 33.4886 363.044 34.0426 363.233C34.5966 363.422 35.1009 363.73 35.5554 364.156C36.0099 364.578 36.3722 365.136 36.642 365.832C36.9119 366.528 37.0469 367.385 37.0469 368.403V369.114H28.6378V367.665H35.3423C35.3423 367.049 35.2192 366.5 34.973 366.017C34.7315 365.534 34.3859 365.153 33.9361 364.874C33.491 364.594 32.9654 364.455 32.3594 364.455C31.6918 364.455 31.1141 364.62 30.6264 364.952C30.1435 365.278 29.7718 365.705 29.5114 366.23C29.2509 366.756 29.1207 367.319 29.1207 367.92V368.886C29.1207 369.71 29.2628 370.409 29.5469 370.982C29.8357 371.55 30.2358 371.983 30.7472 372.281C31.2585 372.575 31.8527 372.722 32.5298 372.722C32.9702 372.722 33.3679 372.66 33.723 372.537C34.0829 372.409 34.393 372.22 34.6534 371.969C34.9138 371.713 35.1151 371.396 35.2571 371.017L36.8764 371.472C36.706 372.021 36.4195 372.504 36.017 372.92C35.6146 373.332 35.1174 373.654 34.5256 373.886C33.9337 374.114 33.2685 374.227 32.5298 374.227ZM39.5966 374V363.091H41.2159V364.739H41.3295C41.5284 364.199 41.8883 363.761 42.4091 363.425C42.9299 363.089 43.517 362.92 44.1705 362.92C44.2936 362.92 44.4474 362.923 44.6321 362.928C44.8168 362.932 44.9564 362.939 45.0511 362.949V364.653C44.9943 364.639 44.8641 364.618 44.6605 364.589C44.4616 364.556 44.2509 364.54 44.0284 364.54C43.4981 364.54 43.0246 364.651 42.608 364.874C42.196 365.091 41.8693 365.394 41.6278 365.783C41.3911 366.166 41.2727 366.604 41.2727 367.097V374H39.5966ZM50.2482 374.256C49.5569 374.256 48.9296 374.125 48.3661 373.865C47.8027 373.6 47.3552 373.219 47.0238 372.722C46.6924 372.22 46.5266 371.614 46.5266 370.903C46.5266 370.278 46.6497 369.772 46.896 369.384C47.1422 368.991 47.4712 368.683 47.8832 368.46C48.2951 368.238 48.7496 368.072 49.2468 367.963C49.7487 367.849 50.253 367.759 50.7596 367.693C51.4225 367.608 51.9599 367.544 52.3718 367.501C52.7885 367.454 53.0915 367.376 53.2809 367.267C53.475 367.158 53.5721 366.969 53.5721 366.699V366.642C53.5721 365.941 53.3803 365.397 52.9968 365.009C52.618 364.62 52.0427 364.426 51.271 364.426C50.4708 364.426 49.8434 364.601 49.3888 364.952C48.9343 365.302 48.6147 365.676 48.43 366.074L46.8391 365.506C47.1232 364.843 47.502 364.327 47.9755 363.957C48.4537 363.583 48.9746 363.323 49.538 363.176C50.1062 363.025 50.6649 362.949 51.2141 362.949C51.5645 362.949 51.967 362.991 52.4215 363.077C52.8808 363.157 53.3235 363.325 53.7496 363.581C54.1805 363.837 54.538 364.223 54.8221 364.739C55.1062 365.255 55.2482 365.946 55.2482 366.812V374H53.5721V372.523H53.4869C53.3732 372.759 53.1838 373.013 52.9187 373.283C52.6535 373.553 52.3008 373.782 51.8604 373.972C51.4201 374.161 50.8827 374.256 50.2482 374.256ZM50.5039 372.75C51.1668 372.75 51.7255 372.62 52.18 372.359C52.6393 372.099 52.985 371.763 53.217 371.351C53.4537 370.939 53.5721 370.506 53.5721 370.051V368.517C53.5011 368.602 53.3448 368.68 53.1033 368.751C52.8666 368.818 52.592 368.877 52.2795 368.929C51.9717 368.976 51.671 369.019 51.3775 369.057C51.0887 369.09 50.8543 369.118 50.6744 369.142C50.2388 369.199 49.8316 369.291 49.4528 369.419C49.0787 369.542 48.7757 369.729 48.5437 369.98C48.3164 370.226 48.2028 370.562 48.2028 370.989C48.2028 371.571 48.4182 372.011 48.8491 372.31C49.2847 372.603 49.8363 372.75 50.5039 372.75ZM63.0518 363.091V364.511H57.3984V363.091H63.0518ZM59.0462 360.477H60.7223V370.875C60.7223 371.348 60.791 371.704 60.9283 371.94C61.0703 372.172 61.2502 372.329 61.468 372.409C61.6906 372.485 61.925 372.523 62.1712 372.523C62.3558 372.523 62.5073 372.513 62.6257 372.494C62.7441 372.471 62.8388 372.452 62.9098 372.438L63.2507 373.943C63.1371 373.986 62.9785 374.028 62.7749 374.071C62.5713 374.118 62.3132 374.142 62.0007 374.142C61.5272 374.142 61.0632 374.04 60.6087 373.837C60.1589 373.633 59.7848 373.323 59.4865 372.906C59.1929 372.49 59.0462 371.964 59.0462 371.33V360.477ZM65.5732 374V363.091H67.2493V374H65.5732ZM66.4254 361.273C66.0987 361.273 65.817 361.161 65.5803 360.939C65.3482 360.716 65.2322 360.449 65.2322 360.136C65.2322 359.824 65.3482 359.556 65.5803 359.334C65.817 359.111 66.0987 359 66.4254 359C66.7521 359 67.0315 359.111 67.2635 359.334C67.5002 359.556 67.6186 359.824 67.6186 360.136C67.6186 360.449 67.5002 360.716 67.2635 360.939C67.0315 361.161 66.7521 361.273 66.4254 361.273ZM74.7511 374.227C73.7662 374.227 72.9021 373.993 72.1587 373.524C71.4201 373.055 70.8424 372.4 70.4258 371.557C70.0138 370.714 69.8079 369.729 69.8079 368.602C69.8079 367.466 70.0138 366.474 70.4258 365.626C70.8424 364.779 71.4201 364.121 72.1587 363.652C72.9021 363.183 73.7662 362.949 74.7511 362.949C75.7359 362.949 76.5977 363.183 77.3363 363.652C78.0797 364.121 78.6573 364.779 79.0692 365.626C79.4859 366.474 79.6942 367.466 79.6942 368.602C79.6942 369.729 79.4859 370.714 79.0692 371.557C78.6573 372.4 78.0797 373.055 77.3363 373.524C76.5977 373.993 75.7359 374.227 74.7511 374.227ZM74.7511 372.722C75.4992 372.722 76.1147 372.53 76.5977 372.146C77.0806 371.763 77.4381 371.259 77.6701 370.634C77.9021 370.009 78.0181 369.331 78.0181 368.602C78.0181 367.873 77.9021 367.194 77.6701 366.564C77.4381 365.934 77.0806 365.425 76.5977 365.037C76.1147 364.649 75.4992 364.455 74.7511 364.455C74.003 364.455 73.3874 364.649 72.9045 365.037C72.4215 365.425 72.064 365.934 71.832 366.564C71.6 367.194 71.484 367.873 71.484 368.602C71.484 369.331 71.6 370.009 71.832 370.634C72.064 371.259 72.4215 371.763 72.9045 372.146C73.3874 372.53 74.003 372.722 74.7511 372.722ZM83.929 367.438V374H82.2528V363.091H83.8722V364.795H84.0142C84.2699 364.241 84.6581 363.796 85.179 363.46C85.6998 363.119 86.3722 362.949 87.196 362.949C87.9347 362.949 88.581 363.1 89.1349 363.403C89.6889 363.702 90.1198 364.156 90.4276 364.767C90.7353 365.373 90.8892 366.14 90.8892 367.068V374H89.2131V367.182C89.2131 366.325 88.9905 365.657 88.5455 365.179C88.1004 364.696 87.4896 364.455 86.7131 364.455C86.178 364.455 85.6998 364.571 85.2784 364.803C84.8617 365.035 84.5327 365.373 84.2912 365.818C84.0497 366.263 83.929 366.803 83.929 367.438ZM101.679 365.534L100.174 365.96C100.079 365.709 99.9393 365.465 99.7546 365.229C99.5747 364.987 99.3285 364.788 99.016 364.632C98.7035 364.476 98.3034 364.398 97.8157 364.398C97.1481 364.398 96.5917 364.552 96.1467 364.859C95.7063 365.162 95.4862 365.548 95.4862 366.017C95.4862 366.434 95.6377 366.763 95.9407 367.004C96.2437 367.246 96.7172 367.447 97.3612 367.608L98.9805 368.006C99.9558 368.242 100.683 368.605 101.161 369.092C101.639 369.575 101.878 370.198 101.878 370.96C101.878 371.585 101.698 372.144 101.338 372.636C100.983 373.129 100.486 373.517 99.8469 373.801C99.2077 374.085 98.4644 374.227 97.6168 374.227C96.5041 374.227 95.5832 373.986 94.854 373.503C94.1249 373.02 93.6632 372.314 93.4691 371.386L95.06 370.989C95.2115 371.576 95.498 372.016 95.9194 372.31C96.3455 372.603 96.9019 372.75 97.5884 372.75C98.3697 372.75 98.9899 372.584 99.4492 372.253C99.9132 371.917 100.145 371.514 100.145 371.045C100.145 370.667 100.013 370.349 99.7475 370.094C99.4824 369.833 99.0752 369.639 98.5259 369.511L96.7077 369.085C95.7087 368.848 94.9748 368.482 94.506 367.984C94.042 367.482 93.81 366.855 93.81 366.102C93.81 365.487 93.9828 364.942 94.3285 364.469C94.6789 363.995 95.1547 363.624 95.756 363.354C96.3621 363.084 97.0487 362.949 97.8157 362.949C98.8952 362.949 99.7428 363.186 100.358 363.659C100.979 364.133 101.419 364.758 101.679 365.534Z" fill="#333333"/>
<path d="M15.0547 339.704V343H0.464844V340.188L7.36426 332.79C8.05762 332.019 8.60449 331.34 9.00488 330.754C9.40527 330.158 9.69336 329.626 9.86914 329.157C10.0547 328.679 10.1475 328.225 10.1475 327.795C10.1475 327.15 10.04 326.599 9.8252 326.14C9.61035 325.671 9.29297 325.31 8.87305 325.056C8.46289 324.802 7.95508 324.675 7.34961 324.675C6.70508 324.675 6.14844 324.831 5.67969 325.144C5.2207 325.456 4.86914 325.891 4.625 326.447C4.39062 327.004 4.27344 327.634 4.27344 328.337H0.0400391C0.0400391 327.067 0.342773 325.905 0.948242 324.851C1.55371 323.786 2.4082 322.941 3.51172 322.316C4.61523 321.682 5.92383 321.364 7.4375 321.364C8.93164 321.364 10.1914 321.608 11.2168 322.097C12.252 322.575 13.0332 323.269 13.5605 324.177C14.0977 325.075 14.3662 326.149 14.3662 327.399C14.3662 328.103 14.2539 328.791 14.0293 329.465C13.8047 330.129 13.4824 330.793 13.0625 331.457C12.6523 332.111 12.1543 332.775 11.5684 333.449C10.9824 334.123 10.333 334.821 9.62012 335.544L5.91406 339.704H15.0547ZM17.6328 326.901V325.773C17.6328 324.963 17.8086 324.226 18.1602 323.562C18.5117 322.897 19.0293 322.365 19.7129 321.965C20.3965 321.564 21.2363 321.364 22.2324 321.364C23.2578 321.364 24.1123 321.564 24.7959 321.965C25.4893 322.365 26.0068 322.897 26.3486 323.562C26.7002 324.226 26.876 324.963 26.876 325.773V326.901C26.876 327.692 26.7002 328.42 26.3486 329.084C26.0068 329.748 25.4941 330.28 24.8105 330.681C24.127 331.081 23.2822 331.281 22.2764 331.281C21.2607 331.281 20.4062 331.081 19.7129 330.681C19.0293 330.28 18.5117 329.748 18.1602 329.084C17.8086 328.42 17.6328 327.692 17.6328 326.901ZM20.4307 325.773V326.901C20.4307 327.243 20.4941 327.57 20.6211 327.883C20.7578 328.186 20.9629 328.435 21.2363 328.63C21.5195 328.815 21.8613 328.908 22.2617 328.908C22.6816 328.908 23.0234 328.815 23.2871 328.63C23.5508 328.435 23.7461 328.186 23.873 327.883C24 327.57 24.0635 327.243 24.0635 326.901V325.773C24.0635 325.412 23.9951 325.08 23.8584 324.777C23.7314 324.465 23.5312 324.216 23.2578 324.03C22.9941 323.835 22.6523 323.737 22.2324 323.737C21.8418 323.737 21.5098 323.835 21.2363 324.03C20.9629 324.216 20.7578 324.465 20.6211 324.777C20.4941 325.08 20.4307 325.412 20.4307 325.773ZM27.8281 338.898V337.771C27.8281 336.97 28.0039 336.237 28.3555 335.573C28.7168 334.909 29.2393 334.377 29.9229 333.977C30.6162 333.576 31.4658 333.376 32.4717 333.376C33.4873 333.376 34.3369 333.576 35.0205 333.977C35.7041 334.377 36.2217 334.909 36.5732 335.573C36.9248 336.237 37.1006 336.97 37.1006 337.771V338.898C37.1006 339.699 36.9248 340.432 36.5732 341.096C36.2314 341.76 35.7188 342.292 35.0352 342.692C34.3516 343.093 33.5068 343.293 32.501 343.293C31.4854 343.293 30.6309 343.093 29.9375 342.692C29.2441 342.292 28.7168 341.76 28.3555 341.096C28.0039 340.432 27.8281 339.699 27.8281 338.898ZM30.6406 337.771V338.898C30.6406 339.25 30.7188 339.582 30.875 339.895C31.0312 340.207 31.2461 340.456 31.5195 340.642C31.8027 340.827 32.1299 340.92 32.501 340.92C32.9697 340.92 33.3359 340.827 33.5996 340.642C33.8633 340.456 34.0439 340.207 34.1416 339.895C34.249 339.582 34.3027 339.25 34.3027 338.898V337.771C34.3027 337.419 34.2344 337.092 34.0977 336.789C33.9609 336.477 33.7559 336.228 33.4824 336.042C33.2188 335.847 32.8818 335.749 32.4717 335.749C32.0615 335.749 31.7197 335.847 31.4463 336.042C31.1826 336.228 30.9824 336.477 30.8457 336.789C30.709 337.092 30.6406 337.419 30.6406 337.771ZM33.5117 324.719L23.0967 341.389L21.0459 340.305L31.4609 323.635L33.5117 324.719Z" fill="#39CEF3"/>
<path d="M134.761 441.455H136.864L141.807 453.528H141.977L146.92 441.455H149.023V456H147.375V444.949H147.233L142.688 456H141.097L136.551 444.949H136.409V456H134.761V441.455ZM155.537 456.256C154.846 456.256 154.219 456.125 153.655 455.865C153.092 455.6 152.644 455.219 152.313 454.722C151.981 454.22 151.816 453.614 151.816 452.903C151.816 452.278 151.939 451.772 152.185 451.384C152.431 450.991 152.76 450.683 153.172 450.46C153.584 450.238 154.039 450.072 154.536 449.963C155.038 449.849 155.542 449.759 156.049 449.693C156.712 449.608 157.249 449.544 157.661 449.501C158.078 449.454 158.381 449.376 158.57 449.267C158.764 449.158 158.861 448.969 158.861 448.699V448.642C158.861 447.941 158.669 447.397 158.286 447.009C157.907 446.62 157.332 446.426 156.56 446.426C155.76 446.426 155.132 446.601 154.678 446.952C154.223 447.302 153.904 447.676 153.719 448.074L152.128 447.506C152.412 446.843 152.791 446.327 153.265 445.957C153.743 445.583 154.264 445.323 154.827 445.176C155.395 445.025 155.954 444.949 156.503 444.949C156.854 444.949 157.256 444.991 157.711 445.077C158.17 445.157 158.613 445.325 159.039 445.581C159.47 445.837 159.827 446.223 160.111 446.739C160.395 447.255 160.537 447.946 160.537 448.812V456H158.861V454.523H158.776C158.662 454.759 158.473 455.013 158.208 455.283C157.943 455.553 157.59 455.782 157.15 455.972C156.709 456.161 156.172 456.256 155.537 456.256ZM155.793 454.75C156.456 454.75 157.015 454.62 157.469 454.359C157.928 454.099 158.274 453.763 158.506 453.351C158.743 452.939 158.861 452.506 158.861 452.051V450.517C158.79 450.602 158.634 450.68 158.392 450.751C158.156 450.818 157.881 450.877 157.569 450.929C157.261 450.976 156.96 451.019 156.667 451.057C156.378 451.09 156.143 451.118 155.963 451.142C155.528 451.199 155.121 451.291 154.742 451.419C154.368 451.542 154.065 451.729 153.833 451.98C153.605 452.226 153.492 452.562 153.492 452.989C153.492 453.571 153.707 454.011 154.138 454.31C154.574 454.603 155.125 454.75 155.793 454.75ZM163.597 456V445.091H165.216V446.739H165.33C165.528 446.199 165.888 445.761 166.409 445.425C166.93 445.089 167.517 444.92 168.17 444.92C168.294 444.92 168.447 444.923 168.632 444.928C168.817 444.932 168.956 444.939 169.051 444.949V446.653C168.994 446.639 168.864 446.618 168.661 446.589C168.462 446.556 168.251 446.54 168.028 446.54C167.498 446.54 167.025 446.651 166.608 446.874C166.196 447.091 165.869 447.394 165.628 447.783C165.391 448.166 165.273 448.604 165.273 449.097V456H163.597ZM172.6 452.023L172.572 449.949H172.913L177.686 445.091H179.76L174.674 450.233H174.532L172.6 452.023ZM171.038 456V441.455H172.714V456H171.038ZM177.97 456L173.708 450.602L174.902 449.438L180.1 456H177.97ZM186.042 456.227C184.99 456.227 184.084 455.995 183.321 455.531C182.564 455.062 181.979 454.409 181.567 453.571C181.16 452.728 180.956 451.748 180.956 450.631C180.956 449.513 181.16 448.528 181.567 447.676C181.979 446.819 182.552 446.152 183.286 445.673C184.025 445.19 184.886 444.949 185.871 444.949C186.439 444.949 187 445.044 187.554 445.233C188.108 445.422 188.613 445.73 189.067 446.156C189.522 446.578 189.884 447.136 190.154 447.832C190.424 448.528 190.559 449.385 190.559 450.403V451.114H182.15V449.665H188.854C188.854 449.049 188.731 448.5 188.485 448.017C188.243 447.534 187.898 447.153 187.448 446.874C187.003 446.594 186.477 446.455 185.871 446.455C185.203 446.455 184.626 446.62 184.138 446.952C183.655 447.278 183.283 447.705 183.023 448.23C182.763 448.756 182.632 449.319 182.632 449.92V450.886C182.632 451.71 182.775 452.409 183.059 452.982C183.347 453.55 183.748 453.983 184.259 454.281C184.77 454.575 185.364 454.722 186.042 454.722C186.482 454.722 186.88 454.66 187.235 454.537C187.595 454.409 187.905 454.22 188.165 453.969C188.426 453.713 188.627 453.396 188.769 453.017L190.388 453.472C190.218 454.021 189.931 454.504 189.529 454.92C189.126 455.332 188.629 455.654 188.037 455.886C187.445 456.114 186.78 456.227 186.042 456.227ZM197.853 445.091V446.511H192.199V445.091H197.853ZM193.847 442.477H195.523V452.875C195.523 453.348 195.592 453.704 195.729 453.94C195.871 454.172 196.051 454.329 196.269 454.409C196.491 454.485 196.726 454.523 196.972 454.523C197.157 454.523 197.308 454.513 197.426 454.494C197.545 454.471 197.64 454.452 197.711 454.438L198.051 455.943C197.938 455.986 197.779 456.028 197.576 456.071C197.372 456.118 197.114 456.142 196.801 456.142C196.328 456.142 195.864 456.04 195.409 455.837C194.96 455.633 194.586 455.323 194.287 454.906C193.994 454.49 193.847 453.964 193.847 453.33V442.477ZM200.374 456V445.091H202.05V456H200.374ZM201.226 443.273C200.9 443.273 200.618 443.161 200.381 442.939C200.149 442.716 200.033 442.449 200.033 442.136C200.033 441.824 200.149 441.556 200.381 441.334C200.618 441.111 200.9 441 201.226 441C201.553 441 201.832 441.111 202.064 441.334C202.301 441.556 202.419 441.824 202.419 442.136C202.419 442.449 202.301 442.716 202.064 442.939C201.832 443.161 201.553 443.273 201.226 443.273ZM206.796 449.438V456H205.12V445.091H206.739V446.795H206.881C207.137 446.241 207.525 445.796 208.046 445.46C208.567 445.119 209.239 444.949 210.063 444.949C210.802 444.949 211.448 445.1 212.002 445.403C212.556 445.702 212.987 446.156 213.295 446.767C213.603 447.373 213.756 448.14 213.756 449.068V456H212.08V449.182C212.08 448.325 211.858 447.657 211.413 447.179C210.968 446.696 210.357 446.455 209.58 446.455C209.045 446.455 208.567 446.571 208.146 446.803C207.729 447.035 207.4 447.373 207.158 447.818C206.917 448.263 206.796 448.803 206.796 449.438ZM221.223 460.318C220.413 460.318 219.717 460.214 219.135 460.006C218.552 459.802 218.067 459.532 217.679 459.196C217.295 458.865 216.99 458.509 216.762 458.131L218.098 457.193C218.249 457.392 218.441 457.619 218.673 457.875C218.905 458.135 219.222 458.36 219.625 458.55C220.032 458.744 220.565 458.841 221.223 458.841C222.103 458.841 222.83 458.628 223.403 458.202C223.976 457.776 224.262 457.108 224.262 456.199V453.983H224.12C223.997 454.182 223.822 454.428 223.595 454.722C223.372 455.01 223.05 455.268 222.629 455.496C222.212 455.718 221.649 455.83 220.939 455.83C220.058 455.83 219.267 455.621 218.566 455.205C217.87 454.788 217.319 454.182 216.912 453.386C216.509 452.591 216.308 451.625 216.308 450.489C216.308 449.371 216.504 448.398 216.897 447.57C217.29 446.736 217.837 446.092 218.538 445.638C219.239 445.179 220.048 444.949 220.967 444.949C221.677 444.949 222.241 445.067 222.657 445.304C223.079 445.536 223.401 445.801 223.623 446.099C223.85 446.393 224.026 446.634 224.149 446.824H224.319V445.091H225.939V456.312C225.939 457.25 225.725 458.012 225.299 458.599C224.878 459.191 224.31 459.625 223.595 459.899C222.885 460.179 222.094 460.318 221.223 460.318ZM221.166 454.324C221.838 454.324 222.406 454.17 222.87 453.862C223.334 453.554 223.687 453.112 223.929 452.534C224.17 451.956 224.291 451.265 224.291 450.46C224.291 449.674 224.172 448.981 223.936 448.379C223.699 447.778 223.349 447.307 222.885 446.966C222.421 446.625 221.848 446.455 221.166 446.455C220.456 446.455 219.864 446.634 219.39 446.994C218.922 447.354 218.569 447.837 218.332 448.443C218.1 449.049 217.984 449.722 217.984 450.46C217.984 451.218 218.102 451.888 218.339 452.47C218.581 453.048 218.936 453.502 219.404 453.834C219.878 454.161 220.465 454.324 221.166 454.324Z" fill="#333333"/>
<path d="M149.055 421.704V425H134.465V422.188L141.364 414.79C142.058 414.019 142.604 413.34 143.005 412.754C143.405 412.158 143.693 411.626 143.869 411.157C144.055 410.679 144.147 410.225 144.147 409.795C144.147 409.15 144.04 408.599 143.825 408.14C143.61 407.671 143.293 407.31 142.873 407.056C142.463 406.802 141.955 406.675 141.35 406.675C140.705 406.675 140.148 406.831 139.68 407.144C139.221 407.456 138.869 407.891 138.625 408.447C138.391 409.004 138.273 409.634 138.273 410.337H134.04C134.04 409.067 134.343 407.905 134.948 406.851C135.554 405.786 136.408 404.941 137.512 404.316C138.615 403.682 139.924 403.364 141.438 403.364C142.932 403.364 144.191 403.608 145.217 404.097C146.252 404.575 147.033 405.269 147.561 406.177C148.098 407.075 148.366 408.149 148.366 409.399C148.366 410.103 148.254 410.791 148.029 411.465C147.805 412.129 147.482 412.793 147.062 413.457C146.652 414.111 146.154 414.775 145.568 415.449C144.982 416.123 144.333 416.821 143.62 417.544L139.914 421.704H149.055ZM151.633 408.901V407.773C151.633 406.963 151.809 406.226 152.16 405.562C152.512 404.897 153.029 404.365 153.713 403.965C154.396 403.564 155.236 403.364 156.232 403.364C157.258 403.364 158.112 403.564 158.796 403.965C159.489 404.365 160.007 404.897 160.349 405.562C160.7 406.226 160.876 406.963 160.876 407.773V408.901C160.876 409.692 160.7 410.42 160.349 411.084C160.007 411.748 159.494 412.28 158.811 412.681C158.127 413.081 157.282 413.281 156.276 413.281C155.261 413.281 154.406 413.081 153.713 412.681C153.029 412.28 152.512 411.748 152.16 411.084C151.809 410.42 151.633 409.692 151.633 408.901ZM154.431 407.773V408.901C154.431 409.243 154.494 409.57 154.621 409.883C154.758 410.186 154.963 410.435 155.236 410.63C155.52 410.815 155.861 410.908 156.262 410.908C156.682 410.908 157.023 410.815 157.287 410.63C157.551 410.435 157.746 410.186 157.873 409.883C158 409.57 158.063 409.243 158.063 408.901V407.773C158.063 407.412 157.995 407.08 157.858 406.777C157.731 406.465 157.531 406.216 157.258 406.03C156.994 405.835 156.652 405.737 156.232 405.737C155.842 405.737 155.51 405.835 155.236 406.03C154.963 406.216 154.758 406.465 154.621 406.777C154.494 407.08 154.431 407.412 154.431 407.773ZM161.828 420.898V419.771C161.828 418.97 162.004 418.237 162.355 417.573C162.717 416.909 163.239 416.377 163.923 415.977C164.616 415.576 165.466 415.376 166.472 415.376C167.487 415.376 168.337 415.576 169.021 415.977C169.704 416.377 170.222 416.909 170.573 417.573C170.925 418.237 171.101 418.97 171.101 419.771V420.898C171.101 421.699 170.925 422.432 170.573 423.096C170.231 423.76 169.719 424.292 169.035 424.692C168.352 425.093 167.507 425.293 166.501 425.293C165.485 425.293 164.631 425.093 163.938 424.692C163.244 424.292 162.717 423.76 162.355 423.096C162.004 422.432 161.828 421.699 161.828 420.898ZM164.641 419.771V420.898C164.641 421.25 164.719 421.582 164.875 421.895C165.031 422.207 165.246 422.456 165.52 422.642C165.803 422.827 166.13 422.92 166.501 422.92C166.97 422.92 167.336 422.827 167.6 422.642C167.863 422.456 168.044 422.207 168.142 421.895C168.249 421.582 168.303 421.25 168.303 420.898V419.771C168.303 419.419 168.234 419.092 168.098 418.789C167.961 418.477 167.756 418.228 167.482 418.042C167.219 417.847 166.882 417.749 166.472 417.749C166.062 417.749 165.72 417.847 165.446 418.042C165.183 418.228 164.982 418.477 164.846 418.789C164.709 419.092 164.641 419.419 164.641 419.771ZM167.512 406.719L157.097 423.389L155.046 422.305L165.461 405.635L167.512 406.719Z" fill="#39CEF3"/>
<path d="M146.466 253H144.705C144.6 252.493 144.418 252.048 144.158 251.665C143.902 251.281 143.589 250.959 143.22 250.699C142.856 250.434 142.451 250.235 142.006 250.102C141.561 249.97 141.097 249.903 140.614 249.903C139.733 249.903 138.935 250.126 138.22 250.571C137.51 251.016 136.944 251.672 136.523 252.538C136.106 253.405 135.898 254.468 135.898 255.727C135.898 256.987 136.106 258.05 136.523 258.916C136.944 259.783 137.51 260.438 138.22 260.884C138.935 261.329 139.733 261.551 140.614 261.551C141.097 261.551 141.561 261.485 142.006 261.352C142.451 261.22 142.856 261.023 143.22 260.763C143.589 260.498 143.902 260.173 144.158 259.79C144.418 259.402 144.6 258.956 144.705 258.455H146.466C146.333 259.198 146.092 259.863 145.741 260.45C145.391 261.037 144.955 261.537 144.435 261.949C143.914 262.356 143.329 262.666 142.68 262.879C142.036 263.092 141.348 263.199 140.614 263.199C139.373 263.199 138.27 262.896 137.304 262.29C136.338 261.684 135.578 260.822 135.024 259.705C134.47 258.587 134.193 257.261 134.193 255.727C134.193 254.193 134.47 252.867 135.024 251.75C135.578 250.633 136.338 249.771 137.304 249.165C138.27 248.559 139.373 248.256 140.614 248.256C141.348 248.256 142.036 248.362 142.68 248.575C143.329 248.788 143.914 249.101 144.435 249.513C144.955 249.92 145.391 250.417 145.741 251.004C146.092 251.587 146.333 252.252 146.466 253ZM150.761 256.438V263H149.085V248.455H150.761V253.795H150.903C151.159 253.232 151.542 252.785 152.054 252.453C152.57 252.117 153.256 251.949 154.113 251.949C154.857 251.949 155.508 252.098 156.066 252.396C156.625 252.69 157.058 253.142 157.366 253.753C157.679 254.359 157.835 255.131 157.835 256.068V263H156.159V256.182C156.159 255.315 155.934 254.645 155.484 254.172C155.039 253.694 154.421 253.455 153.63 253.455C153.081 253.455 152.589 253.571 152.153 253.803C151.722 254.035 151.381 254.373 151.13 254.818C150.884 255.263 150.761 255.803 150.761 256.438ZM164.112 263.256C163.42 263.256 162.793 263.125 162.229 262.865C161.666 262.6 161.219 262.219 160.887 261.722C160.556 261.22 160.39 260.614 160.39 259.903C160.39 259.278 160.513 258.772 160.759 258.384C161.005 257.991 161.335 257.683 161.746 257.46C162.158 257.238 162.613 257.072 163.11 256.963C163.612 256.849 164.116 256.759 164.623 256.693C165.286 256.608 165.823 256.544 166.235 256.501C166.652 256.454 166.955 256.376 167.144 256.267C167.338 256.158 167.435 255.969 167.435 255.699V255.642C167.435 254.941 167.244 254.397 166.86 254.009C166.481 253.62 165.906 253.426 165.134 253.426C164.334 253.426 163.707 253.601 163.252 253.952C162.798 254.302 162.478 254.676 162.293 255.074L160.702 254.506C160.987 253.843 161.365 253.327 161.839 252.957C162.317 252.583 162.838 252.323 163.401 252.176C163.969 252.025 164.528 251.949 165.077 251.949C165.428 251.949 165.83 251.991 166.285 252.077C166.744 252.157 167.187 252.325 167.613 252.581C168.044 252.837 168.401 253.223 168.685 253.739C168.969 254.255 169.112 254.946 169.112 255.812V263H167.435V261.523H167.35C167.237 261.759 167.047 262.013 166.782 262.283C166.517 262.553 166.164 262.782 165.724 262.972C165.283 263.161 164.746 263.256 164.112 263.256ZM164.367 261.75C165.03 261.75 165.589 261.62 166.043 261.359C166.503 261.099 166.848 260.763 167.08 260.351C167.317 259.939 167.435 259.506 167.435 259.051V257.517C167.364 257.602 167.208 257.68 166.967 257.751C166.73 257.818 166.455 257.877 166.143 257.929C165.835 257.976 165.534 258.019 165.241 258.057C164.952 258.09 164.718 258.118 164.538 258.142C164.102 258.199 163.695 258.291 163.316 258.419C162.942 258.542 162.639 258.729 162.407 258.98C162.18 259.226 162.066 259.562 162.066 259.989C162.066 260.571 162.281 261.011 162.712 261.31C163.148 261.603 163.7 261.75 164.367 261.75ZM172.171 263V252.091H173.79V253.739H173.904C174.103 253.199 174.462 252.761 174.983 252.425C175.504 252.089 176.091 251.92 176.745 251.92C176.868 251.92 177.022 251.923 177.206 251.928C177.391 251.932 177.531 251.939 177.625 251.949V253.653C177.569 253.639 177.438 253.618 177.235 253.589C177.036 253.556 176.825 253.54 176.603 253.54C176.072 253.54 175.599 253.651 175.182 253.874C174.77 254.091 174.444 254.394 174.202 254.783C173.965 255.166 173.847 255.604 173.847 256.097V263H172.171ZM179.612 263V252.091H181.288V263H179.612ZM180.464 250.273C180.138 250.273 179.856 250.161 179.619 249.939C179.387 249.716 179.271 249.449 179.271 249.136C179.271 248.824 179.387 248.556 179.619 248.334C179.856 248.111 180.138 248 180.464 248C180.791 248 181.071 248.111 181.303 248.334C181.539 248.556 181.658 248.824 181.658 249.136C181.658 249.449 181.539 249.716 181.303 249.939C181.071 250.161 180.791 250.273 180.464 250.273ZM189.103 252.091V253.511H183.449V252.091H189.103ZM185.097 249.477H186.773V259.875C186.773 260.348 186.842 260.704 186.979 260.94C187.121 261.172 187.301 261.329 187.519 261.409C187.741 261.485 187.976 261.523 188.222 261.523C188.407 261.523 188.558 261.513 188.676 261.494C188.795 261.471 188.89 261.452 188.961 261.438L189.301 262.943C189.188 262.986 189.029 263.028 188.826 263.071C188.622 263.118 188.364 263.142 188.051 263.142C187.578 263.142 187.114 263.04 186.659 262.837C186.21 262.633 185.836 262.323 185.537 261.906C185.244 261.49 185.097 260.964 185.097 260.33V249.477ZM192.703 267.091C192.419 267.091 192.166 267.067 191.944 267.02C191.721 266.977 191.567 266.935 191.482 266.892L191.908 265.415C192.315 265.519 192.675 265.557 192.988 265.528C193.3 265.5 193.577 265.36 193.819 265.109C194.065 264.863 194.29 264.463 194.493 263.909L194.806 263.057L190.772 252.091H192.59L195.601 260.784H195.715L198.726 252.091H200.544L195.914 264.591C195.705 265.154 195.447 265.621 195.14 265.99C194.832 266.364 194.474 266.641 194.067 266.821C193.665 267.001 193.21 267.091 192.703 267.091Z" fill="#333333"/>
<path d="M145.349 210.452H145.964V213.821H145.715C144.602 213.821 143.61 213.987 142.741 214.319C141.872 214.651 141.135 215.125 140.529 215.74C139.934 216.346 139.475 217.078 139.152 217.938C138.84 218.797 138.684 219.759 138.684 220.823V224.368C138.684 225.13 138.757 225.804 138.903 226.39C139.06 226.966 139.279 227.449 139.562 227.84C139.855 228.221 140.197 228.509 140.588 228.704C140.979 228.89 141.418 228.982 141.906 228.982C142.365 228.982 142.78 228.885 143.151 228.689C143.532 228.494 143.854 228.221 144.118 227.869C144.392 227.508 144.597 227.088 144.733 226.609C144.88 226.121 144.953 225.589 144.953 225.013C144.953 224.437 144.88 223.904 144.733 223.416C144.597 222.928 144.392 222.508 144.118 222.156C143.845 221.795 143.513 221.517 143.122 221.321C142.731 221.126 142.292 221.028 141.804 221.028C141.14 221.028 140.554 221.185 140.046 221.497C139.548 221.8 139.157 222.19 138.874 222.669C138.591 223.147 138.439 223.65 138.42 224.178L137.146 223.357C137.175 222.605 137.331 221.893 137.614 221.219C137.907 220.545 138.308 219.949 138.815 219.432C139.333 218.904 139.953 218.494 140.676 218.201C141.398 217.898 142.214 217.747 143.122 217.747C144.118 217.747 144.992 217.938 145.744 218.318C146.506 218.699 147.141 219.222 147.648 219.886C148.156 220.55 148.537 221.316 148.791 222.186C149.045 223.055 149.172 223.982 149.172 224.969C149.172 226.004 149.001 226.966 148.659 227.854C148.327 228.743 147.844 229.52 147.209 230.184C146.584 230.848 145.832 231.365 144.953 231.736C144.074 232.107 143.088 232.293 141.994 232.293C140.861 232.293 139.831 232.088 138.903 231.678C137.985 231.258 137.194 230.672 136.53 229.92C135.866 229.168 135.354 228.274 134.992 227.239C134.641 226.204 134.465 225.071 134.465 223.841V222.2C134.465 220.481 134.714 218.909 135.212 217.483C135.72 216.048 136.447 214.808 137.395 213.763C138.342 212.708 139.484 211.893 140.822 211.316C142.16 210.74 143.669 210.452 145.349 210.452ZM151.633 215.901V214.773C151.633 213.963 151.809 213.226 152.16 212.562C152.512 211.897 153.029 211.365 153.713 210.965C154.396 210.564 155.236 210.364 156.232 210.364C157.258 210.364 158.112 210.564 158.796 210.965C159.489 211.365 160.007 211.897 160.349 212.562C160.7 213.226 160.876 213.963 160.876 214.773V215.901C160.876 216.692 160.7 217.42 160.349 218.084C160.007 218.748 159.494 219.28 158.811 219.681C158.127 220.081 157.282 220.281 156.276 220.281C155.261 220.281 154.406 220.081 153.713 219.681C153.029 219.28 152.512 218.748 152.16 218.084C151.809 217.42 151.633 216.692 151.633 215.901ZM154.431 214.773V215.901C154.431 216.243 154.494 216.57 154.621 216.883C154.758 217.186 154.963 217.435 155.236 217.63C155.52 217.815 155.861 217.908 156.262 217.908C156.682 217.908 157.023 217.815 157.287 217.63C157.551 217.435 157.746 217.186 157.873 216.883C158 216.57 158.063 216.243 158.063 215.901V214.773C158.063 214.412 157.995 214.08 157.858 213.777C157.731 213.465 157.531 213.216 157.258 213.03C156.994 212.835 156.652 212.737 156.232 212.737C155.842 212.737 155.51 212.835 155.236 213.03C154.963 213.216 154.758 213.465 154.621 213.777C154.494 214.08 154.431 214.412 154.431 214.773ZM161.828 227.898V226.771C161.828 225.97 162.004 225.237 162.355 224.573C162.717 223.909 163.239 223.377 163.923 222.977C164.616 222.576 165.466 222.376 166.472 222.376C167.487 222.376 168.337 222.576 169.021 222.977C169.704 223.377 170.222 223.909 170.573 224.573C170.925 225.237 171.101 225.97 171.101 226.771V227.898C171.101 228.699 170.925 229.432 170.573 230.096C170.231 230.76 169.719 231.292 169.035 231.692C168.352 232.093 167.507 232.293 166.501 232.293C165.485 232.293 164.631 232.093 163.938 231.692C163.244 231.292 162.717 230.76 162.355 230.096C162.004 229.432 161.828 228.699 161.828 227.898ZM164.641 226.771V227.898C164.641 228.25 164.719 228.582 164.875 228.895C165.031 229.207 165.246 229.456 165.52 229.642C165.803 229.827 166.13 229.92 166.501 229.92C166.97 229.92 167.336 229.827 167.6 229.642C167.863 229.456 168.044 229.207 168.142 228.895C168.249 228.582 168.303 228.25 168.303 227.898V226.771C168.303 226.419 168.234 226.092 168.098 225.789C167.961 225.477 167.756 225.228 167.482 225.042C167.219 224.847 166.882 224.749 166.472 224.749C166.062 224.749 165.72 224.847 165.446 225.042C165.183 225.228 164.982 225.477 164.846 225.789C164.709 226.092 164.641 226.419 164.641 226.771ZM167.512 213.719L157.097 230.389L155.046 229.305L165.461 212.635L167.512 213.719Z" fill="#39CEF3"/>
<g filter="url(#filter0_d_0_1)">
<circle cx="511.5" cy="265.5" r="219.5" fill="white"/>
</g>
<g clip-path="url(#clip0_0_1)">
<path d="M369.322 372.429C360.468 379.033 358.575 391.645 366.038 399.788C381.776 416.957 400.457 431.256 421.25 441.979C447.983 455.765 477.506 463.279 507.578 463.951C537.649 464.622 567.478 458.434 594.8 445.856C616.052 436.072 635.353 422.623 651.841 406.173C659.661 398.371 658.332 385.688 649.782 378.694L612.699 348.363C604.149 341.37 591.646 342.805 583.223 349.95C575.62 356.401 567.152 361.809 558.039 366.004C542.847 372.998 526.261 376.439 509.541 376.065C492.821 375.692 476.405 371.513 461.541 363.848C452.624 359.25 444.407 353.469 437.099 346.686C429.004 339.171 416.577 337.18 407.723 343.784L369.322 372.429Z" fill="url(#paint0_linear_0_1)"/>
<path d="M662.392 361.217C671.724 367.126 684.18 364.387 689.118 354.506C698.394 335.943 704.713 315.998 707.806 295.394C711.891 268.183 710.259 240.419 703.015 213.873C695.771 187.327 683.073 162.583 665.732 141.219C648.391 119.854 626.788 102.339 602.299 89.7898C577.811 77.2408 550.976 69.9337 523.506 68.3346C496.036 66.7356 468.535 70.8797 442.756 80.5026C416.977 90.1256 393.487 105.016 373.784 124.224C358.866 138.768 346.366 155.546 336.715 173.917C331.578 183.695 336.63 195.406 346.876 199.53L391.318 217.42C401.565 221.545 413.072 216.447 418.98 207.114C423.561 199.877 428.983 193.18 435.149 187.169C446.104 176.489 459.165 168.21 473.499 162.859C487.832 157.509 503.124 155.204 518.398 156.094C533.672 156.983 548.593 161.046 562.209 168.023C575.824 175.001 587.837 184.74 597.479 196.619C607.121 208.498 614.181 222.256 618.209 237.016C622.237 251.776 623.144 267.214 620.873 282.344C619.594 290.859 617.325 299.172 614.126 307.117C610.001 317.364 612.582 329.681 621.915 335.59L662.392 361.217Z" fill="url(#paint1_linear_0_1)"/>
<path d="M340.065 219.93C329.396 217.071 318.322 223.398 316.554 234.301C315.155 242.924 314.329 251.63 314.08 260.362C313.766 271.403 323.451 279.7 334.468 278.899L383.842 275.312C393.979 274.575 401.44 265.716 402.4 255.597C403.361 245.479 397.7 235.373 387.882 232.743L340.065 219.93Z" fill="#39CEF3"/>
<path d="M320.483 304.258C314.792 305.947 311.518 311.942 313.513 317.533C315.508 323.125 321.837 325.694 327.312 323.398L392.957 295.877C396.001 294.601 397.418 291.103 396.309 287.994C395.2 284.885 391.889 283.074 388.724 284.013L320.483 304.258Z" fill="#39CEF3"/>
<path d="M334.887 339.79C329.9 341.915 327.558 347.694 329.928 352.57C332.298 357.446 338.289 359.173 343.042 356.564L406.71 321.609C409.353 320.158 410.306 316.846 408.988 314.135C407.67 311.424 404.476 310.127 401.703 311.309L334.887 339.79Z" fill="#39CEF3"/>
</g>
<path d="M874.5 96H750L698 125" stroke="#CDCDCD" stroke-width="2" stroke-dasharray="2 2"/>
<path d="M114.5 352H216L266.5 325.5" stroke="#CDCDCD" stroke-width="2" stroke-dasharray="2 2"/>
<path d="M194.967 434.4L283.881 397.717L322.512 345" stroke="#CDCDCD" stroke-width="2" stroke-dasharray="2 2"/>
<path d="M210 233H263L308.5 233" stroke="#CDCDCD" stroke-width="2" stroke-dasharray="2 2"/>
<path d="M927.435 88.2881L924.065 87.4824L925.281 76.6719H937.264V80.085H928.753L928.226 84.8164C928.509 84.6504 928.938 84.4746 929.515 84.2891C930.091 84.0938 930.735 83.9961 931.448 83.9961C932.483 83.9961 933.401 84.1572 934.202 84.4795C935.003 84.8018 935.682 85.2705 936.238 85.8857C936.805 86.501 937.234 87.2529 937.527 88.1416C937.82 89.0303 937.967 90.0361 937.967 91.1592C937.967 92.1064 937.82 93.0098 937.527 93.8691C937.234 94.7188 936.79 95.4805 936.194 96.1543C935.599 96.8184 934.852 97.3408 933.953 97.7217C933.055 98.1025 931.99 98.293 930.76 98.293C929.842 98.293 928.953 98.1562 928.094 97.8828C927.244 97.6094 926.478 97.2041 925.794 96.667C925.12 96.1299 924.578 95.4805 924.168 94.7188C923.768 93.9473 923.558 93.0684 923.538 92.082H927.728C927.786 92.6875 927.942 93.21 928.196 93.6494C928.46 94.0791 928.807 94.4111 929.236 94.6455C929.666 94.8799 930.169 94.9971 930.745 94.9971C931.282 94.9971 931.741 94.8945 932.122 94.6895C932.503 94.4844 932.811 94.2012 933.045 93.8398C933.279 93.4688 933.45 93.0391 933.558 92.5508C933.675 92.0527 933.733 91.5156 933.733 90.9395C933.733 90.3633 933.665 89.8408 933.528 89.3721C933.392 88.9033 933.182 88.498 932.898 88.1562C932.615 87.8145 932.254 87.5508 931.814 87.3652C931.385 87.1797 930.882 87.0869 930.306 87.0869C929.524 87.0869 928.919 87.209 928.489 87.4531C928.069 87.6973 927.718 87.9756 927.435 88.2881ZM955.047 85.4609V89.1523C955.047 90.7539 954.876 92.1357 954.534 93.2979C954.192 94.4502 953.699 95.3975 953.055 96.1396C952.42 96.8721 951.663 97.4141 950.784 97.7656C949.905 98.1172 948.929 98.293 947.854 98.293C946.995 98.293 946.194 98.1855 945.452 97.9707C944.71 97.7461 944.041 97.3994 943.445 96.9307C942.859 96.4619 942.352 95.8711 941.922 95.1582C941.502 94.4355 941.18 93.5762 940.955 92.5801C940.73 91.584 940.618 90.4414 940.618 89.1523V85.4609C940.618 83.8594 940.789 82.4873 941.131 81.3447C941.482 80.1924 941.976 79.25 942.61 78.5176C943.255 77.7852 944.017 77.248 944.896 76.9062C945.774 76.5547 946.751 76.3789 947.825 76.3789C948.685 76.3789 949.48 76.4912 950.213 76.7158C950.955 76.9307 951.624 77.2676 952.22 77.7266C952.815 78.1855 953.323 78.7764 953.743 79.499C954.163 80.2119 954.485 81.0664 954.71 82.0625C954.935 83.0488 955.047 84.1816 955.047 85.4609ZM950.813 89.709V84.8896C950.813 84.1182 950.77 83.4443 950.682 82.8682C950.604 82.292 950.481 81.8037 950.315 81.4033C950.149 80.9932 949.944 80.6611 949.7 80.4072C949.456 80.1533 949.178 79.9678 948.865 79.8506C948.553 79.7334 948.206 79.6748 947.825 79.6748C947.347 79.6748 946.922 79.7676 946.551 79.9531C946.189 80.1387 945.882 80.4365 945.628 80.8467C945.374 81.2471 945.179 81.7842 945.042 82.458C944.915 83.1221 944.852 83.9326 944.852 84.8896V89.709C944.852 90.4805 944.891 91.1592 944.969 91.7451C945.057 92.3311 945.184 92.834 945.35 93.2539C945.525 93.6641 945.73 94.001 945.965 94.2646C946.209 94.5186 946.487 94.7041 946.8 94.8213C947.122 94.9385 947.474 94.9971 947.854 94.9971C948.323 94.9971 948.738 94.9043 949.1 94.7188C949.471 94.5234 949.783 94.2207 950.037 93.8105C950.301 93.3906 950.496 92.8438 950.623 92.1699C950.75 91.4961 950.813 90.6758 950.813 89.709ZM957.859 81.9014V80.7734C957.859 79.9629 958.035 79.2256 958.387 78.5615C958.738 77.8975 959.256 77.3652 959.939 76.9648C960.623 76.5645 961.463 76.3643 962.459 76.3643C963.484 76.3643 964.339 76.5645 965.022 76.9648C965.716 77.3652 966.233 77.8975 966.575 78.5615C966.927 79.2256 967.103 79.9629 967.103 80.7734V81.9014C967.103 82.6924 966.927 83.4199 966.575 84.084C966.233 84.748 965.721 85.2803 965.037 85.6807C964.354 86.0811 963.509 86.2812 962.503 86.2812C961.487 86.2812 960.633 86.0811 959.939 85.6807C959.256 85.2803 958.738 84.748 958.387 84.084C958.035 83.4199 957.859 82.6924 957.859 81.9014ZM960.657 80.7734V81.9014C960.657 82.2432 960.721 82.5703 960.848 82.8828C960.984 83.1855 961.189 83.4346 961.463 83.6299C961.746 83.8154 962.088 83.9082 962.488 83.9082C962.908 83.9082 963.25 83.8154 963.514 83.6299C963.777 83.4346 963.973 83.1855 964.1 82.8828C964.227 82.5703 964.29 82.2432 964.29 81.9014V80.7734C964.29 80.4121 964.222 80.0801 964.085 79.7773C963.958 79.4648 963.758 79.2158 963.484 79.0303C963.221 78.835 962.879 78.7373 962.459 78.7373C962.068 78.7373 961.736 78.835 961.463 79.0303C961.189 79.2158 960.984 79.4648 960.848 79.7773C960.721 80.0801 960.657 80.4121 960.657 80.7734ZM968.055 93.8984V92.7705C968.055 91.9697 968.23 91.2373 968.582 90.5732C968.943 89.9092 969.466 89.377 970.149 88.9766C970.843 88.5762 971.692 88.376 972.698 88.376C973.714 88.376 974.563 88.5762 975.247 88.9766C975.931 89.377 976.448 89.9092 976.8 90.5732C977.151 91.2373 977.327 91.9697 977.327 92.7705V93.8984C977.327 94.6992 977.151 95.4316 976.8 96.0957C976.458 96.7598 975.945 97.292 975.262 97.6924C974.578 98.0928 973.733 98.293 972.728 98.293C971.712 98.293 970.857 98.0928 970.164 97.6924C969.471 97.292 968.943 96.7598 968.582 96.0957C968.23 95.4316 968.055 94.6992 968.055 93.8984ZM970.867 92.7705V93.8984C970.867 94.25 970.945 94.582 971.102 94.8945C971.258 95.207 971.473 95.4561 971.746 95.6416C972.029 95.8271 972.356 95.9199 972.728 95.9199C973.196 95.9199 973.562 95.8271 973.826 95.6416C974.09 95.4561 974.271 95.207 974.368 94.8945C974.476 94.582 974.529 94.25 974.529 93.8984V92.7705C974.529 92.4189 974.461 92.0918 974.324 91.7891C974.188 91.4766 973.982 91.2275 973.709 91.042C973.445 90.8467 973.108 90.749 972.698 90.749C972.288 90.749 971.946 90.8467 971.673 91.042C971.409 91.2275 971.209 91.4766 971.072 91.7891C970.936 92.0918 970.867 92.4189 970.867 92.7705ZM973.738 79.7188L963.323 96.3887L961.272 95.3047L971.688 78.6348L973.738 79.7188Z" fill="#9AD960"/>
<path d="M673.5 514H549L497 485" stroke="#CDCDCD" stroke-width="2" stroke-dasharray="2 2"/>
<path d="M700.466 509H698.705C698.6 508.493 698.418 508.048 698.158 507.665C697.902 507.281 697.589 506.959 697.22 506.699C696.856 506.434 696.451 506.235 696.006 506.102C695.561 505.97 695.097 505.903 694.614 505.903C693.733 505.903 692.935 506.126 692.22 506.571C691.51 507.016 690.944 507.672 690.523 508.538C690.106 509.405 689.898 510.468 689.898 511.727C689.898 512.987 690.106 514.05 690.523 514.916C690.944 515.783 691.51 516.438 692.22 516.884C692.935 517.329 693.733 517.551 694.614 517.551C695.097 517.551 695.561 517.485 696.006 517.352C696.451 517.22 696.856 517.023 697.22 516.763C697.589 516.498 697.902 516.173 698.158 515.79C698.418 515.402 698.6 514.956 698.705 514.455H700.466C700.333 515.198 700.092 515.863 699.741 516.45C699.391 517.037 698.955 517.537 698.435 517.949C697.914 518.356 697.329 518.666 696.68 518.879C696.036 519.092 695.348 519.199 694.614 519.199C693.373 519.199 692.27 518.896 691.304 518.29C690.338 517.684 689.578 516.822 689.024 515.705C688.47 514.587 688.193 513.261 688.193 511.727C688.193 510.193 688.47 508.867 689.024 507.75C689.578 506.633 690.338 505.771 691.304 505.165C692.27 504.559 693.373 504.256 694.614 504.256C695.348 504.256 696.036 504.362 696.68 504.575C697.329 504.788 697.914 505.101 698.435 505.513C698.955 505.92 699.391 506.417 699.741 507.004C700.092 507.587 700.333 508.252 700.466 509ZM703.312 519V504.455H712.091V506.017H705.074V510.932H711.636V512.494H705.074V517.438H712.204V519H703.312ZM716.118 504.455L719.868 510.506H719.981L723.731 504.455H725.805L721.231 511.727L725.805 519H723.731L719.981 513.062H719.868L716.118 519H714.044L718.731 511.727L714.044 504.455H716.118ZM733.722 519V504.455H735.484V517.438H742.245V519H733.722ZM746.734 504.455V519H744.972V504.455H746.734ZM755.549 514.455H757.481L759.1 516.585L759.527 517.153L761.941 520.364H760.01L758.419 518.233L758.021 517.693L755.549 514.455ZM762.538 511.727C762.538 513.261 762.261 514.587 761.707 515.705C761.153 516.822 760.393 517.684 759.427 518.29C758.461 518.896 757.358 519.199 756.118 519.199C754.877 519.199 753.774 518.896 752.808 518.29C751.842 517.684 751.082 516.822 750.528 515.705C749.974 514.587 749.697 513.261 749.697 511.727C749.697 510.193 749.974 508.867 750.528 507.75C751.082 506.633 751.842 505.771 752.808 505.165C753.774 504.559 754.877 504.256 756.118 504.256C757.358 504.256 758.461 504.559 759.427 505.165C760.393 505.771 761.153 506.633 761.707 507.75C762.261 508.867 762.538 510.193 762.538 511.727ZM760.833 511.727C760.833 510.468 760.623 509.405 760.201 508.538C759.785 507.672 759.219 507.016 758.504 506.571C757.794 506.126 756.998 505.903 756.118 505.903C755.237 505.903 754.439 506.126 753.724 506.571C753.014 507.016 752.448 507.672 752.027 508.538C751.61 509.405 751.402 510.468 751.402 511.727C751.402 512.987 751.61 514.05 752.027 514.916C752.448 515.783 753.014 516.438 753.724 516.884C754.439 517.329 755.237 517.551 756.118 517.551C756.998 517.551 757.794 517.329 758.504 516.884C759.219 516.438 759.785 515.783 760.201 514.916C760.623 514.05 760.833 512.987 760.833 511.727ZM775.045 504.455H776.806V514.085C776.806 515.08 776.572 515.967 776.103 516.749C775.639 517.525 774.984 518.138 774.136 518.588C773.288 519.033 772.294 519.256 771.153 519.256C770.012 519.256 769.018 519.033 768.17 518.588C767.323 518.138 766.664 517.525 766.196 516.749C765.732 515.967 765.5 515.08 765.5 514.085V504.455H767.261V513.943C767.261 514.653 767.417 515.286 767.73 515.839C768.042 516.389 768.487 516.822 769.065 517.139C769.647 517.452 770.343 517.608 771.153 517.608C771.963 517.608 772.659 517.452 773.241 517.139C773.824 516.822 774.269 516.389 774.576 515.839C774.889 515.286 775.045 514.653 775.045 513.943V504.455ZM782.085 504.455V519H780.324V504.455H782.085ZM790.105 519H785.617V504.455H790.304C791.715 504.455 792.923 504.746 793.926 505.328C794.93 505.906 795.7 506.737 796.235 507.821C796.77 508.901 797.037 510.193 797.037 511.699C797.037 513.214 796.767 514.518 796.228 515.612C795.688 516.701 794.902 517.539 793.87 518.126C792.837 518.709 791.583 519 790.105 519ZM787.378 517.438H789.992C791.194 517.438 792.191 517.205 792.982 516.741C793.773 516.277 794.362 515.617 794.75 514.76C795.139 513.903 795.333 512.883 795.333 511.699C795.333 510.525 795.141 509.514 794.757 508.666C794.374 507.814 793.801 507.161 793.039 506.706C792.276 506.247 791.327 506.017 790.191 506.017H787.378V517.438ZM801.753 504.455V519H799.992V504.455H801.753ZM804.489 506.017V504.455H815.398V506.017H810.825V519H809.063V506.017H804.489ZM816.867 504.455H818.884L822.918 511.244H823.088L827.123 504.455H829.14L823.884 513.006V519H822.123V513.006L816.867 504.455Z" fill="#333333"/>
<path d="M703.406 480.031V483.342H688.04L687.835 480.778L696.727 466.672H700.081L696.448 472.751L692.024 480.031H703.406ZM700.989 466.672V488H696.771V466.672H700.989ZM720.047 475.461V479.152C720.047 480.754 719.876 482.136 719.534 483.298C719.192 484.45 718.699 485.397 718.055 486.14C717.42 486.872 716.663 487.414 715.784 487.766C714.905 488.117 713.929 488.293 712.854 488.293C711.995 488.293 711.194 488.186 710.452 487.971C709.71 487.746 709.041 487.399 708.445 486.931C707.859 486.462 707.352 485.871 706.922 485.158C706.502 484.436 706.18 483.576 705.955 482.58C705.73 481.584 705.618 480.441 705.618 479.152V475.461C705.618 473.859 705.789 472.487 706.131 471.345C706.482 470.192 706.976 469.25 707.61 468.518C708.255 467.785 709.017 467.248 709.896 466.906C710.774 466.555 711.751 466.379 712.825 466.379C713.685 466.379 714.48 466.491 715.213 466.716C715.955 466.931 716.624 467.268 717.22 467.727C717.815 468.186 718.323 468.776 718.743 469.499C719.163 470.212 719.485 471.066 719.71 472.062C719.935 473.049 720.047 474.182 720.047 475.461ZM715.813 479.709V474.89C715.813 474.118 715.77 473.444 715.682 472.868C715.604 472.292 715.481 471.804 715.315 471.403C715.149 470.993 714.944 470.661 714.7 470.407C714.456 470.153 714.178 469.968 713.865 469.851C713.553 469.733 713.206 469.675 712.825 469.675C712.347 469.675 711.922 469.768 711.551 469.953C711.189 470.139 710.882 470.437 710.628 470.847C710.374 471.247 710.179 471.784 710.042 472.458C709.915 473.122 709.852 473.933 709.852 474.89V479.709C709.852 480.48 709.891 481.159 709.969 481.745C710.057 482.331 710.184 482.834 710.35 483.254C710.525 483.664 710.73 484.001 710.965 484.265C711.209 484.519 711.487 484.704 711.8 484.821C712.122 484.938 712.474 484.997 712.854 484.997C713.323 484.997 713.738 484.904 714.1 484.719C714.471 484.523 714.783 484.221 715.037 483.811C715.301 483.391 715.496 482.844 715.623 482.17C715.75 481.496 715.813 480.676 715.813 479.709ZM722.859 471.901V470.773C722.859 469.963 723.035 469.226 723.387 468.562C723.738 467.897 724.256 467.365 724.939 466.965C725.623 466.564 726.463 466.364 727.459 466.364C728.484 466.364 729.339 466.564 730.022 466.965C730.716 467.365 731.233 467.897 731.575 468.562C731.927 469.226 732.103 469.963 732.103 470.773V471.901C732.103 472.692 731.927 473.42 731.575 474.084C731.233 474.748 730.721 475.28 730.037 475.681C729.354 476.081 728.509 476.281 727.503 476.281C726.487 476.281 725.633 476.081 724.939 475.681C724.256 475.28 723.738 474.748 723.387 474.084C723.035 473.42 722.859 472.692 722.859 471.901ZM725.657 470.773V471.901C725.657 472.243 725.721 472.57 725.848 472.883C725.984 473.186 726.189 473.435 726.463 473.63C726.746 473.815 727.088 473.908 727.488 473.908C727.908 473.908 728.25 473.815 728.514 473.63C728.777 473.435 728.973 473.186 729.1 472.883C729.227 472.57 729.29 472.243 729.29 471.901V470.773C729.29 470.412 729.222 470.08 729.085 469.777C728.958 469.465 728.758 469.216 728.484 469.03C728.221 468.835 727.879 468.737 727.459 468.737C727.068 468.737 726.736 468.835 726.463 469.03C726.189 469.216 725.984 469.465 725.848 469.777C725.721 470.08 725.657 470.412 725.657 470.773ZM733.055 483.898V482.771C733.055 481.97 733.23 481.237 733.582 480.573C733.943 479.909 734.466 479.377 735.149 478.977C735.843 478.576 736.692 478.376 737.698 478.376C738.714 478.376 739.563 478.576 740.247 478.977C740.931 479.377 741.448 479.909 741.8 480.573C742.151 481.237 742.327 481.97 742.327 482.771V483.898C742.327 484.699 742.151 485.432 741.8 486.096C741.458 486.76 740.945 487.292 740.262 487.692C739.578 488.093 738.733 488.293 737.728 488.293C736.712 488.293 735.857 488.093 735.164 487.692C734.471 487.292 733.943 486.76 733.582 486.096C733.23 485.432 733.055 484.699 733.055 483.898ZM735.867 482.771V483.898C735.867 484.25 735.945 484.582 736.102 484.895C736.258 485.207 736.473 485.456 736.746 485.642C737.029 485.827 737.356 485.92 737.728 485.92C738.196 485.92 738.562 485.827 738.826 485.642C739.09 485.456 739.271 485.207 739.368 484.895C739.476 484.582 739.529 484.25 739.529 483.898V482.771C739.529 482.419 739.461 482.092 739.324 481.789C739.188 481.477 738.982 481.228 738.709 481.042C738.445 480.847 738.108 480.749 737.698 480.749C737.288 480.749 736.946 480.847 736.673 481.042C736.409 481.228 736.209 481.477 736.072 481.789C735.936 482.092 735.867 482.419 735.867 482.771ZM738.738 469.719L728.323 486.389L726.272 485.305L736.688 468.635L738.738 469.719Z" fill="#FF703B"/>
<path d="M880.761 129V114.455H889.483V116.017H882.523V120.932H888.83V122.494H882.523V129H880.761ZM895.483 129.256C894.791 129.256 894.164 129.125 893.6 128.865C893.037 128.6 892.59 128.219 892.258 127.722C891.927 127.22 891.761 126.614 891.761 125.903C891.761 125.278 891.884 124.772 892.13 124.384C892.377 123.991 892.706 123.683 893.118 123.46C893.529 123.238 893.984 123.072 894.481 122.963C894.983 122.849 895.487 122.759 895.994 122.693C896.657 122.608 897.194 122.544 897.606 122.501C898.023 122.454 898.326 122.376 898.515 122.267C898.709 122.158 898.806 121.969 898.806 121.699V121.642C898.806 120.941 898.615 120.397 898.231 120.009C897.852 119.62 897.277 119.426 896.505 119.426C895.705 119.426 895.078 119.601 894.623 119.952C894.169 120.302 893.849 120.676 893.664 121.074L892.074 120.506C892.358 119.843 892.736 119.327 893.21 118.957C893.688 118.583 894.209 118.323 894.772 118.176C895.341 118.025 895.899 117.949 896.449 117.949C896.799 117.949 897.201 117.991 897.656 118.077C898.115 118.157 898.558 118.325 898.984 118.581C899.415 118.837 899.772 119.223 900.056 119.739C900.341 120.255 900.483 120.946 900.483 121.812V129H898.806V127.523H898.721C898.608 127.759 898.418 128.013 898.153 128.283C897.888 128.553 897.535 128.782 897.095 128.972C896.654 129.161 896.117 129.256 895.483 129.256ZM895.738 127.75C896.401 127.75 896.96 127.62 897.414 127.359C897.874 127.099 898.219 126.763 898.451 126.351C898.688 125.939 898.806 125.506 898.806 125.051V123.517C898.735 123.602 898.579 123.68 898.338 123.751C898.101 123.818 897.826 123.877 897.514 123.929C897.206 123.976 896.905 124.019 896.612 124.057C896.323 124.09 896.089 124.118 895.909 124.142C895.473 124.199 895.066 124.291 894.687 124.419C894.313 124.542 894.01 124.729 893.778 124.98C893.551 125.226 893.437 125.562 893.437 125.989C893.437 126.571 893.653 127.011 894.083 127.31C894.519 127.603 895.071 127.75 895.738 127.75ZM903.542 129V118.091H905.218V129H903.542ZM904.394 116.273C904.067 116.273 903.786 116.161 903.549 115.939C903.317 115.716 903.201 115.449 903.201 115.136C903.201 114.824 903.317 114.556 903.549 114.334C903.786 114.111 904.067 114 904.394 114C904.721 114 905 114.111 905.232 114.334C905.469 114.556 905.587 114.824 905.587 115.136C905.587 115.449 905.469 115.716 905.232 115.939C905 116.161 904.721 116.273 904.394 116.273ZM908.288 129V118.091H909.907V119.739H910.021C910.22 119.199 910.58 118.761 911.1 118.425C911.621 118.089 912.208 117.92 912.862 117.92C912.985 117.92 913.139 117.923 913.324 117.928C913.508 117.932 913.648 117.939 913.743 117.949V119.653C913.686 119.639 913.556 119.618 913.352 119.589C913.153 119.556 912.942 119.54 912.72 119.54C912.19 119.54 911.716 119.651 911.299 119.874C910.887 120.091 910.561 120.394 910.319 120.783C910.083 121.166 909.964 121.604 909.964 122.097V129H908.288ZM923.031 114.455V129H921.354V114.455H923.031ZM929.311 129.256C928.619 129.256 927.992 129.125 927.429 128.865C926.865 128.6 926.418 128.219 926.086 127.722C925.755 127.22 925.589 126.614 925.589 125.903C925.589 125.278 925.712 124.772 925.958 124.384C926.205 123.991 926.534 123.683 926.946 123.46C927.358 123.238 927.812 123.072 928.309 122.963C928.811 122.849 929.315 122.759 929.822 122.693C930.485 122.608 931.022 122.544 931.434 122.501C931.851 122.454 932.154 122.376 932.343 122.267C932.538 122.158 932.635 121.969 932.635 121.699V121.642C932.635 120.941 932.443 120.397 932.059 120.009C931.681 119.62 931.105 119.426 930.333 119.426C929.533 119.426 928.906 119.601 928.451 119.952C927.997 120.302 927.677 120.676 927.493 121.074L925.902 120.506C926.186 119.843 926.565 119.327 927.038 118.957C927.516 118.583 928.037 118.323 928.6 118.176C929.169 118.025 929.727 117.949 930.277 117.949C930.627 117.949 931.029 117.991 931.484 118.077C931.943 118.157 932.386 118.325 932.812 118.581C933.243 118.837 933.6 119.223 933.885 119.739C934.169 120.255 934.311 120.946 934.311 121.812V129H932.635V127.523H932.549C932.436 127.759 932.246 128.013 931.981 128.283C931.716 128.553 931.363 128.782 930.923 128.972C930.483 129.161 929.945 129.256 929.311 129.256ZM929.566 127.75C930.229 127.75 930.788 127.62 931.243 127.359C931.702 127.099 932.047 126.763 932.279 126.351C932.516 125.939 932.635 125.506 932.635 125.051V123.517C932.564 123.602 932.407 123.68 932.166 123.751C931.929 123.818 931.654 123.877 931.342 123.929C931.034 123.976 930.734 124.019 930.44 124.057C930.151 124.09 929.917 124.118 929.737 124.142C929.301 124.199 928.894 124.291 928.515 124.419C928.141 124.542 927.838 124.729 927.606 124.98C927.379 125.226 927.265 125.562 927.265 125.989C927.265 126.571 927.481 127.011 927.912 127.31C928.347 127.603 928.899 127.75 929.566 127.75ZM944.245 124.54V118.091H945.921V129H944.245V127.153H944.131C943.876 127.707 943.478 128.179 942.938 128.567C942.398 128.95 941.717 129.142 940.893 129.142C940.211 129.142 939.605 128.993 939.075 128.695C938.544 128.392 938.128 127.937 937.825 127.331C937.522 126.72 937.37 125.951 937.37 125.023V118.091H939.046V124.909C939.046 125.705 939.269 126.339 939.714 126.812C940.164 127.286 940.737 127.523 941.433 127.523C941.849 127.523 942.273 127.416 942.704 127.203C943.139 126.99 943.504 126.663 943.798 126.223C944.096 125.783 944.245 125.222 944.245 124.54ZM950.667 122.438V129H948.991V118.091H950.61V119.795H950.752C951.008 119.241 951.396 118.796 951.917 118.46C952.438 118.119 953.11 117.949 953.934 117.949C954.673 117.949 955.319 118.1 955.873 118.403C956.427 118.702 956.858 119.156 957.166 119.767C957.474 120.373 957.627 121.14 957.627 122.068V129H955.951V122.182C955.951 121.325 955.729 120.657 955.284 120.179C954.839 119.696 954.228 119.455 953.451 119.455C952.916 119.455 952.438 119.571 952.017 119.803C951.6 120.035 951.271 120.373 951.029 120.818C950.788 121.263 950.667 121.803 950.667 122.438ZM965.122 129.227C964.099 129.227 963.219 128.986 962.48 128.503C961.741 128.02 961.173 127.355 960.776 126.507C960.378 125.66 960.179 124.691 960.179 123.602C960.179 122.494 960.383 121.517 960.79 120.669C961.202 119.817 961.775 119.152 962.509 118.673C963.247 118.19 964.109 117.949 965.094 117.949C965.861 117.949 966.552 118.091 967.168 118.375C967.783 118.659 968.287 119.057 968.68 119.568C969.073 120.08 969.317 120.676 969.412 121.358H967.736C967.608 120.861 967.324 120.42 966.884 120.037C966.448 119.649 965.861 119.455 965.122 119.455C964.469 119.455 963.896 119.625 963.403 119.966C962.916 120.302 962.535 120.778 962.26 121.393C961.99 122.004 961.855 122.722 961.855 123.545C961.855 124.388 961.988 125.122 962.253 125.747C962.523 126.372 962.902 126.857 963.389 127.203C963.882 127.549 964.459 127.722 965.122 127.722C965.558 127.722 965.953 127.646 966.308 127.494C966.663 127.343 966.964 127.125 967.21 126.841C967.456 126.557 967.632 126.216 967.736 125.818H969.412C969.317 126.462 969.083 127.042 968.709 127.558C968.339 128.07 967.849 128.477 967.239 128.78C966.633 129.078 965.927 129.227 965.122 129.227ZM973.538 122.438V129H971.862V114.455H973.538V119.795H973.68C973.936 119.232 974.32 118.785 974.831 118.453C975.347 118.117 976.034 117.949 976.891 117.949C977.634 117.949 978.285 118.098 978.844 118.396C979.402 118.69 979.836 119.142 980.143 119.753C980.456 120.359 980.612 121.131 980.612 122.068V129H978.936V122.182C978.936 121.315 978.711 120.645 978.261 120.172C977.816 119.694 977.198 119.455 976.408 119.455C975.858 119.455 975.366 119.571 974.93 119.803C974.5 120.035 974.159 120.373 973.908 120.818C973.661 121.263 973.538 121.803 973.538 122.438ZM993.423 129.199C992.467 129.199 991.643 129.024 990.951 128.673C990.26 128.323 989.727 127.842 989.353 127.232C988.979 126.621 988.792 125.922 988.792 125.136C988.792 124.53 988.92 123.993 989.176 123.524C989.436 123.051 989.794 122.613 990.248 122.21C990.708 121.803 991.235 121.396 991.832 120.989L993.934 119.426C994.346 119.156 994.675 118.867 994.922 118.56C995.172 118.252 995.298 117.849 995.298 117.352C995.298 116.983 995.135 116.625 994.808 116.28C994.486 115.934 994.062 115.761 993.537 115.761C993.167 115.761 992.841 115.856 992.556 116.045C992.277 116.23 992.057 116.467 991.896 116.756C991.74 117.04 991.662 117.333 991.662 117.636C991.662 117.977 991.754 118.323 991.939 118.673C992.128 119.019 992.367 119.374 992.656 119.739C992.949 120.098 993.252 120.468 993.565 120.847L1000.24 129H998.224L992.713 122.352C992.201 121.737 991.737 121.178 991.321 120.676C990.904 120.174 990.573 119.679 990.326 119.192C990.08 118.704 989.957 118.176 989.957 117.608C989.957 116.955 990.101 116.382 990.39 115.889C990.684 115.392 991.093 115.006 991.619 114.732C992.149 114.452 992.77 114.312 993.48 114.312C994.209 114.312 994.836 114.455 995.362 114.739C995.887 115.018 996.292 115.39 996.576 115.854C996.86 116.313 997.002 116.812 997.002 117.352C997.002 118.048 996.83 118.652 996.484 119.163C996.138 119.675 995.667 120.151 995.071 120.591L992.173 122.75C991.52 123.233 991.077 123.702 990.845 124.156C990.613 124.611 990.497 124.937 990.497 125.136C990.497 125.591 990.615 126.015 990.852 126.408C991.089 126.801 991.422 127.118 991.853 127.359C992.284 127.601 992.788 127.722 993.366 127.722C993.915 127.722 994.45 127.606 994.971 127.374C995.492 127.137 995.963 126.796 996.385 126.351C996.811 125.906 997.147 125.371 997.393 124.746C997.644 124.121 997.77 123.418 997.77 122.636H999.389C999.389 123.602 999.278 124.391 999.055 125.001C998.833 125.612 998.582 126.09 998.302 126.436C998.023 126.782 997.798 127.04 997.627 127.21C997.571 127.281 997.519 127.352 997.471 127.423C997.424 127.494 997.372 127.565 997.315 127.636C996.846 128.162 996.254 128.555 995.539 128.815C994.824 129.071 994.119 129.199 993.423 129.199ZM1007.95 129V114.455H1012.86C1014 114.455 1014.94 114.661 1015.66 115.072C1016.39 115.48 1016.93 116.031 1017.28 116.727C1017.63 117.423 1017.81 118.2 1017.81 119.057C1017.81 119.914 1017.63 120.693 1017.28 121.393C1016.94 122.094 1016.4 122.653 1015.68 123.07C1014.95 123.482 1014.02 123.688 1012.89 123.688H1009.37V122.125H1012.84C1013.62 122.125 1014.24 121.99 1014.72 121.72C1015.19 121.45 1015.53 121.086 1015.75 120.626C1015.96 120.162 1016.07 119.639 1016.07 119.057C1016.07 118.474 1015.96 117.954 1015.75 117.494C1015.53 117.035 1015.19 116.675 1014.71 116.415C1014.23 116.15 1013.6 116.017 1012.81 116.017H1009.71V129H1007.95ZM1027.29 124.54V118.091H1028.97V129H1027.29V127.153H1027.18C1026.92 127.707 1026.52 128.179 1025.99 128.567C1025.45 128.95 1024.76 129.142 1023.94 129.142C1023.26 129.142 1022.65 128.993 1022.12 128.695C1021.59 128.392 1021.17 127.937 1020.87 127.331C1020.57 126.72 1020.42 125.951 1020.42 125.023V118.091H1022.09V124.909C1022.09 125.705 1022.32 126.339 1022.76 126.812C1023.21 127.286 1023.78 127.523 1024.48 127.523C1024.9 127.523 1025.32 127.416 1025.75 127.203C1026.19 126.99 1026.55 126.663 1026.84 126.223C1027.14 125.783 1027.29 125.222 1027.29 124.54ZM1032.27 129V114.455H1033.94V119.824H1034.08C1034.21 119.634 1034.38 119.393 1034.59 119.099C1034.82 118.801 1035.13 118.536 1035.55 118.304C1035.96 118.067 1036.53 117.949 1037.24 117.949C1038.16 117.949 1038.97 118.179 1039.67 118.638C1040.37 119.097 1040.91 119.748 1041.31 120.591C1041.7 121.434 1041.9 122.428 1041.9 123.574C1041.9 124.729 1041.7 125.731 1041.31 126.578C1040.91 127.421 1040.37 128.074 1039.67 128.538C1038.98 128.998 1038.17 129.227 1037.27 129.227C1036.56 129.227 1036 129.111 1035.58 128.879C1035.16 128.643 1034.84 128.375 1034.61 128.077C1034.38 127.774 1034.21 127.523 1034.08 127.324H1033.88V129H1032.27ZM1033.91 123.545C1033.91 124.369 1034.03 125.096 1034.28 125.726C1034.52 126.351 1034.87 126.841 1035.33 127.196C1035.8 127.546 1036.37 127.722 1037.04 127.722C1037.74 127.722 1038.32 127.537 1038.79 127.168C1039.27 126.794 1039.62 126.292 1039.86 125.662C1040.1 125.027 1040.22 124.322 1040.22 123.545C1040.22 122.778 1040.1 122.087 1039.86 121.472C1039.63 120.851 1039.28 120.361 1038.81 120.001C1038.34 119.637 1037.75 119.455 1037.04 119.455C1036.36 119.455 1035.78 119.627 1035.32 119.973C1034.86 120.314 1034.5 120.792 1034.27 121.408C1034.03 122.018 1033.91 122.731 1033.91 123.545ZM1046.14 114.455V129H1044.46V114.455H1046.14ZM1049.21 129V118.091H1050.88V129H1049.21ZM1050.06 116.273C1049.73 116.273 1049.45 116.161 1049.21 115.939C1048.98 115.716 1048.87 115.449 1048.87 115.136C1048.87 114.824 1048.98 114.556 1049.21 114.334C1049.45 114.111 1049.73 114 1050.06 114C1050.38 114 1050.66 114.111 1050.9 114.334C1051.13 114.556 1051.25 114.824 1051.25 115.136C1051.25 115.449 1051.13 115.716 1050.9 115.939C1050.66 116.161 1050.38 116.273 1050.06 116.273ZM1058.38 129.227C1057.36 129.227 1056.48 128.986 1055.74 128.503C1055 128.02 1054.44 127.355 1054.04 126.507C1053.64 125.66 1053.44 124.691 1053.44 123.602C1053.44 122.494 1053.64 121.517 1054.05 120.669C1054.46 119.817 1055.04 119.152 1055.77 118.673C1056.51 118.19 1057.37 117.949 1058.36 117.949C1059.12 117.949 1059.81 118.091 1060.43 118.375C1061.04 118.659 1061.55 119.057 1061.94 119.568C1062.34 120.08 1062.58 120.676 1062.67 121.358H1061C1060.87 120.861 1060.59 120.42 1060.15 120.037C1059.71 119.649 1059.12 119.455 1058.38 119.455C1057.73 119.455 1057.16 119.625 1056.67 119.966C1056.18 120.302 1055.8 120.778 1055.52 121.393C1055.25 122.004 1055.12 122.722 1055.12 123.545C1055.12 124.388 1055.25 125.122 1055.51 125.747C1055.78 126.372 1056.16 126.857 1056.65 127.203C1057.14 127.549 1057.72 127.722 1058.38 127.722C1058.82 127.722 1059.21 127.646 1059.57 127.494C1059.93 127.343 1060.23 127.125 1060.47 126.841C1060.72 126.557 1060.89 126.216 1061 125.818H1062.67C1062.58 126.462 1062.34 127.042 1061.97 127.558C1061.6 128.07 1061.11 128.477 1060.5 128.78C1059.89 129.078 1059.19 129.227 1058.38 129.227Z" fill="#333333"/>
<defs>
<filter id="filter0_d_0_1" x="242" y="0" width="539" height="539" filterUnits="userSpaceOnUse" color-interpolation-filters="sRGB">
<feFlood flood-opacity="0" result="BackgroundImageFix"/>
<feColorMatrix in="SourceAlpha" type="matrix" values="0 0 0 0 0 0 0 0 0 0 0 0 0 0 0 0 0 0 127 0" result="hardAlpha"/>
<feOffset dy="4"/>
<feGaussianBlur stdDeviation="25"/>
<feComposite in2="hardAlpha" operator="out"/>
<feColorMatrix type="matrix" values="0 0 0 0 0 0 0 0 0 0 0 0 0 0 0 0 0 0 0.08 0"/>
<feBlend mode="normal" in2="BackgroundImageFix" result="effect1_dropShadow_0_1"/>
<feBlend mode="normal" in="SourceGraphic" in2="effect1_dropShadow_0_1" result="shape"/>
</filter>
<linearGradient id="paint0_linear_0_1" x1="649.625" y1="68.0409" x2="314.016" y2="395.526" gradientUnits="userSpaceOnUse">
<stop stop-color="#FF4906"/>
<stop offset="0.515519" stop-color="#FF8B60"/>
<stop offset="1" stop-color="#FFA685"/>
</linearGradient>
<linearGradient id="paint1_linear_0_1" x1="512" y1="68" x2="512" y2="464" gradientUnits="userSpaceOnUse">
<stop stop-color="#A1DC67"/>
<stop offset="1" stop-color="#72CA3D"/>
</linearGradient>
<clipPath id="clip0_0_1">
<rect width="397.09" height="397.09" fill="white" transform="translate(313 67)"/>
</clipPath>
</defs>
</svg>
